PathFileType	3	(X/Y/Z)	squats_1__fused_aligned.trc
DataRate	CameraRate	NumFrames	NumMarkers	Units	OrigDataRate	OrigDataStartFrame	OrigNumFrames
100.0	100.0	12	19	mm	100.0	1165	1650
Frame#	Time	pelvis			neck			head			hip_left			hip_right			knee_left			knee_right			ankle_left			ankle_right			heel_left			heel_right			toe_left			toe_right			shoulder_left			shoulder_right			elbow_left			elbow_right			wrist_left			wrist_right			
		X1	Y1	Z1	X2	Y2	Z2	X3	Y3	Z3	X4	Y4	Z4	X5	Y5	Z5	X6	Y6	Z6	X7	Y7	Z7	X8	Y8	Z8	X9	Y9	Z9	X10	Y10	Z10	X11	Y11	Z11	X12	Y12	Z12	X13	Y13	Z13	X14	Y14	Z14	X15	Y15	Z15	X16	Y16	Z16	X17	Y17	Z17	X18	Y18	Z18	X19	Y19	Z19	
1165	11.64000	77.437486	845.962403	88.963428	59.953425	1385.831488	-134.397151	52.677916	1519.446367	-261.688025	-1.785859	845.296008	94.832892	156.660976	846.628794	83.094067	-111.769923	481.832904	-107.352227	213.343179	484.502385	-143.516022	-109.931107	141.181519	107.711524	241.075503	134.065844	52.522043	-103.904694	102.839270	153.130570	241.578643	98.240789	100.189332	-130.069665	62.376058	-61.224766	252.827880	39.933284	-114.873997	-115.818672	1339.734438	-77.349154	242.123649	1328.430096	-93.966076	-230.912643	1090.010767	13.681094	340.780322	1056.276444	-51.958503	-224.140276	970.284299	-210.751120	318.323312	938.047219	-270.416917
1166	11.65000	76.673094	839.628622	92.023525	59.186294	1377.328970	-135.333414	51.731512	1510.343936	-263.201075	-2.623308	839.023799	97.834893	155.969638	840.233440	86.212250	-113.453745	479.970515	-110.235377	212.867999	482.254350	-145.991244	-110.092525	141.245472	107.443729	239.721237	133.679746	53.143069	-103.934937	103.155511	153.051345	240.159139	98.186919	101.059401	-130.054187	62.087374	-61.159389	251.322325	38.839042	-113.658310	-116.582187	1331.467062	-78.148199	241.370861	1320.292241	-94.891163	-232.543384	1082.440762	13.037009	340.418601	1048.508659	-52.954678	-225.211629	962.657355	-211.087678	316.616036	929.871266	-270.657255
1167	11.66000	75.908702	833.294840	95.083622	58.419164	1368.826452	-136.269676	50.785108	1501.241504	-264.714126	-3.460757	832.751591	100.836894	155.278301	833.838086	89.330433	-115.137567	478.108126	-113.118526	212.392818	480.006315	-148.466466	-110.253942	141.309425	107.175935	238.366970	133.293649	53.764095	-103.965179	103.471752	152.972120	238.739636	98.133049	101.929471	-130.038710	61.798689	-61.094013	249.816769	37.744801	-112.442623	-117.345702	1323.199687	-78.947244	240.618073	1312.154387	-95.816250	-234.174126	1074.870757	12.392924	340.056880	1040.740873	-53.950853	-226.282983	955.030411	-211.424237	314.908760	921.695312	-270.897594
1168	11.67000	75.144310	826.961059	98.143719	57.652034	1360.323933	-137.205939	49.838705	1492.139073	-266.227177	-4.298206	826.479382	103.838896	154.586964	827.442732	92.448616	-116.821389	476.245738	-116.001676	211.917638	477.758280	-150.941688	-110.415360	141.373378	106.908141	237.012704	132.907552	54.385120	-103.995422	103.787992	152.892895	237.320132	98.079179	102.799541	-130.023232	61.510004	-61.028636	248.311214	36.650560	-111.226936	-118.109218	1314.932311	-79.746288	239.865284	1304.016532	-96.741337	-235.804867	1067.300752	11.748839	339.695160	1032.973088	-54.947029	-227.354336	947.403467	-211.760796	313.201484	913.519359	-271.137933
1169	11.68000	74.379918	820.627278	101.203816	56.884904	1351.821415	-138.142201	48.892301	1483.036641	-267.740228	-5.135654	820.207174	106.840897	153.895627	821.047378	95.566800	-118.505210	474.383349	-118.884826	211.442457	475.510246	-153.416910	-110.576777	141.437331	106.640347	235.658438	132.521454	55.006146	-104.025664	104.104233	152.813670	235.900629	98.025308	103.669611	-130.007754	61.221320	-60.963260	246.805658	35.556319	-110.011248	-118.872733	1306.664935	-80.545333	239.112496	1295.878677	-97.666424	-237.435609	1059.730746	11.104754	339.333439	1025.205303	-55.943204	-228.425690	939.776523	-212.097355	311.494207	905.343406	-271.378271
1170	11.69000	73.615526	814.293496	104.263913	56.117774	1343.318896	-139.078464	47.945897	1473.934210	-269.253278	-5.973103	813.934966	109.842899	153.204289	814.652024	98.684983	-120.189032	472.520960	-121.767976	210.967277	473.262211	-155.892132	-110.738195	141.501284	106.372553	234.304172	132.135357	55.627172	-104.055906	104.420474	152.734445	234.481125	97.971438	104.539680	-129.992277	60.932635	-60.897883	245.300103	34.462077	-108.795561	-119.636249	1298.397559	-81.344377	238.359708	1287.740823	-98.591511	-239.066350	1052.160741	10.460669	338.971719	1017.437518	-56.939379	-229.497043	932.149579	-212.433914	309.786931	897.167453	-271.618610
1171	11.70000	72.851134	807.959715	107.324010	55.350643	1334.816378	-140.014726	46.999494	1464.831778	-270.766329	-6.810552	807.662757	112.844900	152.512952	808.256670	101.803166	-121.872854	470.658572	-124.651125	210.492097	471.014176	-158.367354	-110.899612	141.565237	106.104759	232.949906	131.749260	56.248198	-104.086149	104.736715	152.655221	233.061621	97.917568	105.409750	-129.976799	60.643951	-60.832506	243.794547	33.367836	-107.579874	-120.399764	1290.130184	-82.143422	237.606920	1279.602968	-99.516598	-240.697092	1044.590736	9.816583	338.609998	1009.669733	-57.935554	-230.568397	924.522635	-212.770473	308.079655	888.991499	-271.858948
1172	11.71000	72.086742	801.625934	110.384107	54.583513	1326.313859	-140.950989	46.053090	1455.729346	-272.279380	-7.648001	801.390549	115.846901	151.821615	801.861316	104.921349	-123.556676	468.796183	-127.534275	210.016916	468.766141	-160.842576	-111.061030	141.629190	105.836964	231.595640	131.363163	56.869223	-104.116391	105.052956	152.575996	231.642118	97.863698	106.279820	-129.961321	60.355266	-60.767130	242.288992	32.273595	-106.364187	-121.163280	1281.862808	-82.942466	236.854131	1271.465113	-100.441684	-242.327833	1037.020731	9.172498	338.248277	1001.901948	-58.931729	-231.639750	916.895691	-213.107032	306.372379	880.815546	-272.099287
1173	11.72000	71.322350	795.292152	113.444204	53.816383	1317.811341	-141.887251	45.106686	1446.626915	-273.792430	-8.485450	795.118340	118.848903	151.130278	795.465962	108.039532	-125.240498	466.933795	-130.417425	209.541736	466.518106	-163.317798	-111.222447	141.693143	105.569170	230.241374	130.977065	57.490249	-104.146633	105.369197	152.496771	230.222614	97.809828	107.149890	-129.945844	60.066581	-60.701753	240.783437	31.179354	-105.148500	-121.926795	1273.595432	-83.741511	236.101343	1263.327259	-101.366771	-243.958575	1029.450726	8.528413	337.886557	994.134163	-59.927904	-232.711103	909.268747	-213.443591	304.665102	872.639593	-272.339626
1174	11.73000	70.557958	788.958371	116.504301	53.049253	1309.308822	-142.823514	44.160283	1437.524483	-275.305481	-9.322899	788.846132	121.850904	150.438941	789.070608	111.157715	-126.924319	465.071406	-133.300575	209.066556	464.270071	-165.793020	-111.383865	141.757096	105.301376	228.887108	130.590968	58.111275	-104.176876	105.685437	152.417546	228.803111	97.755958	108.019959	-129.930366	59.777897	-60.636377	239.277881	30.085113	-103.932813	-122.690310	1265.328056	-84.540556	235.348555	1255.189404	-102.291858	-245.589316	1021.880721	7.884328	337.524836	986.366378	-60.924079	-233.782457	901.641803	-213.780150	302.957826	864.463640	-272.579964
1175	11.74000	68.878801	781.802080	118.157521	51.376686	1299.835199	-143.831600	42.564263	1427.586648	-276.595090	-11.036123	781.790402	123.491816	148.793836	781.813756	112.823243	-129.206493	463.305877	-136.713484	207.718603	460.054658	-167.079278	-112.314396	141.943541	103.937236	226.585405	127.463923	58.062374	-104.991391	106.114831	151.208058	226.393131	94.785758	108.073897	-130.877266	59.623236	-61.649596	236.835518	26.593764	-103.693781	-124.280054	1256.249245	-85.313478	233.600779	1246.161818	-103.498211	-247.907760	1013.404253	6.811937	336.450588	977.976756	-62.063303	-236.121016	893.220926	-214.627055	301.383658	855.671939	-273.148119
1176	11.75000	67.199643	774.645789	119.810742	49.704119	1290.361575	-144.839686	40.968244	1417.648813	-277.884699	-12.749348	774.734672	125.132727	147.148732	774.556904	114.488771	-131.488667	461.540347	-140.126394	206.370650	455.839244	-168.365536	-113.244927	142.129987	102.573095	224.283702	124.336877	58.013473	-105.805907	106.544225	149.998570	223.983152	91.815557	108.127835	-131.824166	59.468576	-62.662816	234.393156	23.102415	-103.454749	-125.869798	1247.170433	-86.086400	231.853002	1237.134231	-104.704563	-250.226204	1004.927786	5.739545	335.376339	969.587133	-63.202528	-238.459575	884.800050	-215.473960	299.809490	846.880239	-273.716274
